<svg width="20.500000" height="20.500000" viewBox="0 0 20.5 20.5" fill="none" xmlns="http://www.w3.org/2000/svg" xmlns:xlink="http://www.w3.org/1999/xlink">
	<desc>
			Created with Pixso.
	</desc>
	<defs/>
	<path id="Vector" d="M17 0.5L3.5 0.5C2.70508 0.500854 1.94141 0.817261 1.37891 1.37964C0.816406 1.94202 0.5 2.70459 0.5 3.5L0.5 17C0.5 17.7954 0.816406 18.558 1.37891 19.1204C1.94141 19.6827 2.70508 19.9991 3.5 20L17 20C17.7949 19.9991 18.5586 19.6827 19.1211 19.1204C19.6836 18.558 20 17.7954 20 17L20 3.5C20 2.70459 19.6836 1.94202 19.1211 1.37964C18.5586 0.817261 17.7949 0.500854 17 0.5ZM15.3242 6.9823L9.02344 14.4823C8.95508 14.5647 8.86914 14.6311 8.77148 14.6774C8.67578 14.7235 8.56836 14.7483 8.46094 14.75L8.44922 14.75C8.34375 14.75 8.24023 14.7278 8.14453 14.6851C8.04883 14.6422 7.96289 14.5797 7.89258 14.5016L5.19141 11.5016C5.12305 11.4288 5.07031 11.3431 5.03516 11.2495C5 11.1559 4.98438 11.0562 4.98828 10.9563C4.99219 10.8564 5.01562 10.7584 5.05859 10.668C5.10156 10.5775 5.16211 10.4965 5.23633 10.4296C5.31055 10.3627 5.39648 10.3114 5.49219 10.2786C5.58594 10.2457 5.68555 10.2322 5.78516 10.2386C5.88477 10.245 5.98242 10.2714 6.07227 10.3159C6.16211 10.3606 6.24219 10.4226 6.30664 10.4984L8.42969 12.8572L14.1758 6.0177C14.3047 5.86865 14.4863 5.77637 14.6836 5.76062C14.8789 5.745 15.0742 5.80725 15.2246 5.93396C15.377 6.06079 15.4707 6.24182 15.4902 6.43799C15.5078 6.63416 15.4492 6.82971 15.3242 6.9823Z" fill="#000000" fill-opacity="1.000000" fill-rule="nonzero"/>
	<path id="Vector" d="M3.5 0.5C2.70508 0.500854 1.94141 0.817261 1.37891 1.37964C0.816406 1.94202 0.5 2.70459 0.5 3.5L0.5 17C0.5 17.7954 0.816406 18.558 1.37891 19.1204C1.94141 19.6827 2.70508 19.9991 3.5 20L17 20C17.7949 19.9991 18.5586 19.6827 19.1211 19.1204C19.6836 18.558 20 17.7954 20 17L20 3.5C20 2.70459 19.6836 1.94202 19.1211 1.37964C18.5586 0.817261 17.7949 0.500854 17 0.5L3.5 0.5ZM9.02344 14.4823C8.95508 14.5647 8.86914 14.6311 8.77148 14.6774C8.67578 14.7235 8.56836 14.7483 8.46094 14.75L8.44922 14.75C8.34375 14.75 8.24023 14.7278 8.14453 14.6851C8.04883 14.6422 7.96289 14.5797 7.89258 14.5016L5.19141 11.5016C5.12305 11.4288 5.07031 11.3431 5.03516 11.2495C5 11.1559 4.98438 11.0562 4.98828 10.9563C4.99219 10.8564 5.01562 10.7584 5.05859 10.668C5.10156 10.5775 5.16211 10.4965 5.23633 10.4296C5.31055 10.3627 5.39648 10.3114 5.49219 10.2786C5.58594 10.2457 5.68555 10.2322 5.78516 10.2386C5.88477 10.245 5.98242 10.2714 6.07227 10.3159C6.16211 10.3606 6.24219 10.4226 6.30664 10.4984L8.42969 12.8572L14.1758 6.0177C14.3047 5.86865 14.4863 5.77637 14.6836 5.76062C14.8789 5.745 15.0742 5.80725 15.2246 5.93396C15.377 6.06079 15.4707 6.24182 15.4902 6.43799C15.5078 6.63416 15.4492 6.82971 15.3242 6.9823L9.02344 14.4823Z" stroke="#112211" stroke-opacity="1.000000" stroke-width="1.000000"/>
</svg>
