<svg width="24.000000" height="24.000000" viewBox="0 0 24 24" fill="none" xmlns="http://www.w3.org/2000/svg" xmlns:xlink="http://www.w3.org/1999/xlink">
	<desc>
			Created with Pixso.
	</desc>
	<defs>
		<clipPath id="clip64_5600">
			<rect id="Pen" width="24.000000" height="24.000000" transform="translate(-0.500000 0.000000)" fill="white" fill-opacity="0"/>
		</clipPath>
	</defs>
	<rect id="Pen" width="24.000000" height="24.000000" transform="translate(-0.500000 0.000000)" fill="#FFFFFF" fill-opacity="0"/>
	<g clip-path="url(#clip64_5600)">
		<path id="Vector" d="M3.55 18.84L2.78 20.71L4.65 19.94L17.43 7.18L16.31 6.06L3.55 18.84ZM18.31 4.06L19.43 5.19L19.99 4.63C20.13 4.49 20.21 4.29 20.21 4.09C20.21 3.88 20.13 3.68 19.99 3.54L19.95 3.5C19.88 3.43 19.8 3.37 19.7 3.34C19.61 3.3 19.51 3.28 19.41 3.28C19.3 3.28 19.2 3.3 19.11 3.34C19.01 3.37 18.93 3.43 18.86 3.5L18.31 4.06Z" stroke="#000000" stroke-opacity="1.000000" stroke-width="2.062500" stroke-linejoin="round"/>
	</g>
</svg>
