<svg width="24.000000" height="24.000000" viewBox="0 0 24 24" fill="none" xmlns="http://www.w3.org/2000/svg" xmlns:xlink="http://www.w3.org/1999/xlink">
	<desc>
			Created with Pixso.
	</desc>
	<defs>
		<clipPath id="clip74_1030">
			<rect id="Fill=True" width="24.000000" height="24.000000" fill="white" fill-opacity="0"/>
		</clipPath>
	</defs>
	<rect id="Fill=True" width="24.000000" height="24.000000" fill="#FFFFFF" fill-opacity="0"/>
	<g clip-path="url(#clip74_1030)">
		<path id="Vector" d="M21.4 19.75L16.99 15.34C18.05 13.92 18.63 12.2 18.62 10.44C18.62 5.92 14.95 2.25 10.44 2.25C5.92 2.25 2.25 5.92 2.25 10.44C2.25 14.95 5.92 18.62 10.44 18.62C12.2 18.63 13.92 18.05 15.34 16.99L19.75 21.4C19.97 21.6 20.26 21.71 20.56 21.7C20.86 21.69 21.15 21.57 21.36 21.36C21.57 21.15 21.69 20.86 21.7 20.56C21.71 20.26 21.6 19.97 21.4 19.75ZM4.58 10.44C4.58 9.28 4.93 8.15 5.57 7.18C6.21 6.22 7.13 5.47 8.2 5.03C9.27 4.59 10.44 4.47 11.58 4.7C12.71 4.92 13.75 5.48 14.57 6.3C15.39 7.12 15.95 8.16 16.17 9.29C16.4 10.43 16.28 11.6 15.84 12.67C15.4 13.74 14.65 14.66 13.69 15.3C12.72 15.94 11.59 16.29 10.44 16.29C8.88 16.28 7.4 15.67 6.3 14.57C5.2 13.47 4.59 11.99 4.58 10.44Z" fill="#112211" fill-opacity="1.000000" fill-rule="nonzero"/>
		<path id="Vector" d="M16.99 15.34C18.05 13.92 18.63 12.2 18.62 10.44C18.62 5.92 14.95 2.25 10.44 2.25C5.92 2.25 2.25 5.92 2.25 10.44C2.25 14.95 5.92 18.62 10.44 18.62C12.2 18.63 13.92 18.05 15.34 16.99L19.75 21.4C19.97 21.6 20.26 21.71 20.56 21.7C20.86 21.69 21.15 21.57 21.36 21.36C21.57 21.15 21.69 20.86 21.7 20.56C21.71 20.26 21.6 19.97 21.4 19.75L16.99 15.34ZM5.57 7.18C6.21 6.22 7.13 5.47 8.2 5.03C9.27 4.59 10.44 4.47 11.58 4.7C12.71 4.92 13.75 5.48 14.57 6.3C15.39 7.12 15.95 8.16 16.17 9.29C16.4 10.43 16.28 11.6 15.84 12.67C15.4 13.74 14.65 14.66 13.69 15.3C12.72 15.94 11.59 16.29 10.44 16.29C8.88 16.28 7.4 15.67 6.3 14.57C5.2 13.47 4.59 11.99 4.58 10.44C4.58 9.28 4.93 8.15 5.57 7.18Z" stroke="#112211" stroke-opacity="1.000000" stroke-width="1.000000"/>
	</g>
</svg>
