<svg width="16.000000" height="16.000000" viewBox="0 0 16 16" fill="none" xmlns="http://www.w3.org/2000/svg" xmlns:xlink="http://www.w3.org/1999/xlink">
	<desc>
			Created with Pixso.
	</desc>
	<defs>
		<clipPath id="clip10_1056">
			<rect id="Filled=True" width="16.000000" height="16.000000" fill="white" fill-opacity="0"/>
		</clipPath>
	</defs>
	<rect id="Filled=True" width="16.000000" height="16.000000" fill="#FFFFFF" fill-opacity="0"/>
	<g clip-path="url(#clip10_1056)">
		<path id="Vector" d="M14.7812 1.22028C14.6787 1.11807 14.5493 1.04758 14.4077 1.0173C14.2666 0.98703 14.1191 0.99826 13.9844 1.04965L1.4834 5.78122L1.48096 5.78122C1.33643 5.83667 1.21289 5.93524 1.12695 6.06351C1.04102 6.19174 0.996582 6.34344 1 6.49783C1.00342 6.65222 1.05469 6.80179 1.146 6.92612C1.23779 7.05045 1.36572 7.14346 1.51221 7.19247L1.5249 7.19653L5.81543 9.02872C5.89893 9.05414 5.98779 9.05713 6.07324 9.03745C6.15869 9.01776 6.23682 8.97607 6.30127 8.91653L13.1875 2.49997C13.208 2.47946 13.2324 2.46317 13.2588 2.45206C13.2856 2.44098 13.3145 2.43524 13.3438 2.43524C13.3726 2.43524 13.4014 2.44098 13.4282 2.45206C13.4551 2.46317 13.4795 2.47946 13.5 2.49997C13.5205 2.52048 13.5366 2.54486 13.5479 2.57166C13.5586 2.59848 13.5645 2.6272 13.5645 2.65622C13.5645 2.68524 13.5586 2.71396 13.5479 2.74078C13.5366 2.76758 13.5205 2.79196 13.5 2.81247L7.08301 9.69559C7.02344 9.75964 6.98193 9.83823 6.96191 9.92343C6.94238 10.0086 6.94531 10.0975 6.9707 10.1812L8.80371 14.4743C8.80566 14.4806 8.80713 14.4862 8.80957 14.4922C8.90967 14.7819 9.1626 14.9862 9.46875 15L9.5 15C9.6543 15.0009 9.80518 14.9553 9.93359 14.8691C10.062 14.7829 10.1611 14.6602 10.2188 14.5168L14.9497 2.01935C15.0015 1.88412 15.0137 1.73669 14.9834 1.59488C14.9536 1.45306 14.8833 1.32297 14.7812 1.22028Z" fill="#000000" fill-opacity="1.000000" fill-rule="nonzero"/>
		<path id="Vector" d="M14.4077 1.0173C14.2666 0.98703 14.1191 0.99826 13.9844 1.04965L1.4834 5.78122L1.48096 5.78122C1.33643 5.83667 1.21289 5.93524 1.12695 6.06351C1.04102 6.19174 0.996582 6.34344 1 6.49783C1.00342 6.65222 1.05469 6.80179 1.146 6.92612C1.23779 7.05045 1.36572 7.14346 1.51221 7.19247L1.5249 7.19653L5.81543 9.02872C5.89893 9.05414 5.98779 9.05713 6.07324 9.03745C6.15869 9.01776 6.23682 8.97607 6.30127 8.91653L13.1875 2.49997C13.208 2.47946 13.2324 2.46317 13.2588 2.45206C13.2856 2.44098 13.3145 2.43524 13.3438 2.43524C13.3726 2.43524 13.4014 2.44098 13.4282 2.45206C13.4551 2.46317 13.4795 2.47946 13.5 2.49997C13.5205 2.52048 13.5366 2.54486 13.5479 2.57166C13.5586 2.59848 13.5645 2.6272 13.5645 2.65622C13.5645 2.68524 13.5586 2.71396 13.5479 2.74078C13.5366 2.76758 13.5205 2.79196 13.5 2.81247L7.08301 9.69559C7.02344 9.75964 6.98193 9.83823 6.96191 9.92343C6.94238 10.0086 6.94531 10.0975 6.9707 10.1812L8.80371 14.4743C8.80566 14.4806 8.80713 14.4862 8.80957 14.4922C8.90967 14.7819 9.1626 14.9862 9.46875 15L9.5 15C9.6543 15.0009 9.80518 14.9553 9.93359 14.8691C10.062 14.7829 10.1611 14.6602 10.2188 14.5168L14.9497 2.01935C15.0015 1.88412 15.0137 1.73669 14.9834 1.59488C14.9536 1.45306 14.8833 1.32297 14.7812 1.22028C14.6787 1.11807 14.5493 1.04758 14.4077 1.0173Z" stroke="#112211" stroke-opacity="1.000000" stroke-width="1.000000"/>
	</g>
</svg>
