<svg width="32.000000" height="32.000000" viewBox="0 0 32 32" fill="none" xmlns="http://www.w3.org/2000/svg" xmlns:xlink="http://www.w3.org/1999/xlink">
	<desc>
			Created with Pixso.
	</desc>
	<defs>
		<clipPath id="clip119_14988">
			<rect id="timmer" width="22.000000" height="22.000000" transform="translate(5.000000 5.000000)" fill="white" fill-opacity="0"/>
		</clipPath>
	</defs>
	<rect id="Frame 2608697" rx="4.000000" width="32.000000" height="32.000000" transform="translate(0.000000 -0.500000)" fill="#EBF6F2" fill-opacity="1.000000"/>
	<rect id="timmer" width="22.000000" height="22.000000" transform="translate(5.000000 5.000000)" fill="#FFFFFF" fill-opacity="0"/>
	<g clip-path="url(#clip119_14988)">
		<path id="Vector" d="M16 7.75C11.44 7.75 7.75 11.44 7.75 16C7.75 20.55 11.44 24.25 16 24.25C20.55 24.25 24.25 20.55 24.25 16C24.25 11.44 20.55 7.75 16 7.75ZM19.8 17.26L16 17.26C15.83 17.26 15.66 17.2 15.55 17.08C15.43 16.96 15.36 16.8 15.36 16.63L15.36 10.92C15.36 10.75 15.43 10.59 15.55 10.47C15.66 10.35 15.83 10.28 16 10.28C16.16 10.28 16.33 10.35 16.44 10.47C16.56 10.59 16.63 10.75 16.63 10.92L16.63 16L19.8 16C19.97 16 20.13 16.06 20.25 16.18C20.37 16.3 20.44 16.46 20.44 16.63C20.44 16.8 20.37 16.96 20.25 17.08C20.13 17.2 19.97 17.26 19.8 17.26Z" fill="#8DD3BB" fill-opacity="1.000000" fill-rule="nonzero"/>
	</g>
</svg>
