<svg width="16.000000" height="16.000000" viewBox="0 0 16 16" fill="none" xmlns="http://www.w3.org/2000/svg" xmlns:xlink="http://www.w3.org/1999/xlink">
	<desc>
			Created with Pixso.
	</desc>
	<defs>
		<clipPath id="clip10_1185">
			<rect id="add-outline" width="16.000000" height="16.000000" fill="white" fill-opacity="0"/>
		</clipPath>
	</defs>
	<rect id="add-outline" width="16.000000" height="16.000000" fill="#FFFFFF" fill-opacity="0"/>
	<g clip-path="url(#clip10_1185)">
		<path id="Vector" d="M8 3.5L8 12.5L8 3.5ZM12.5 8L3.5 8L12.5 8ZM7.27002 3.51999L7.25 3.5C7.25 3.07999 7.58008 2.75 8 2.75C8.41992 2.75 8.75 3.07999 8.75 3.5L8.72998 3.51999L7.27002 3.51999ZM8.72998 12.48L8.75 12.5C8.75 12.92 8.41992 13.25 8 13.25C7.58008 13.25 7.25 12.92 7.25 12.5L7.27002 12.48L8.72998 12.48ZM12.48 7.26999L12.5 7.25C12.9199 7.25 13.25 7.57999 13.25 8C13.25 8.42001 12.9199 8.75 12.5 8.75L12.48 8.73001L12.48 7.26999ZM3.52002 8.73001L3.5 8.75C3.08008 8.75 2.75 8.42001 2.75 8C2.75 7.57999 3.08008 7.25 3.5 7.25L3.52002 7.26999L3.52002 8.73001Z" fill="#112211" fill-opacity="1.000000" fill-rule="nonzero"/>
		<path id="Vector" d="M8 3.5L8 12.5M12.5 8L3.5 8" stroke="#112211" stroke-opacity="1.000000" stroke-width="1.500000" stroke-linejoin="round"/>
	</g>
</svg>
