<svg width="51.000000" height="33.000000" viewBox="0 0 51 33" fill="none" xmlns="http://www.w3.org/2000/svg" xmlns:xlink="http://www.w3.org/1999/xlink">
	<desc>
			Created with Pixso.
	</desc>
	<defs/>
	<path id="Vector" d="M1.29 -0.01C0.15 -0.01 -0.78 0.92 -0.78 2.06L-0.78 30.43C-0.78 31.57 0.15 32.5 1.29 32.5L48.92 32.5C50.07 32.5 51 31.57 51 30.43L51 2.06C51 0.92 50.07 -0.01 48.92 -0.01L1.29 -0.01ZM30.14 9.68C31.4 9.68 32.41 9.96 33.06 10.21L32.62 12.98L32.33 12.84C31.73 12.58 30.96 12.33 29.89 12.35C28.62 12.35 28.03 12.91 28.03 13.44C28.02 14.04 28.72 14.44 29.85 15.03C31.73 15.94 32.6 17.05 32.58 18.5C32.56 21.15 30.34 22.86 26.92 22.86C25.47 22.85 24.06 22.54 23.3 22.18L23.76 19.32L24.18 19.53C25.25 20 25.94 20.2 27.24 20.2C28.17 20.2 29.18 19.8 29.18 18.95C29.19 18.39 28.76 17.99 27.5 17.36C26.27 16.75 24.63 15.73 24.65 13.89C24.67 11.41 26.93 9.68 30.14 9.68ZM3.8 10.08L9.05 10.08C9.75 10.11 10.33 10.34 10.52 11.1L11.65 16.94C11.65 16.94 11.65 16.95 11.65 16.95L11.99 18.69L15.18 10.08L18.62 10.08L13.5 22.69L10.06 22.69L7.32 12.52C8.95 13.38 10.34 14.38 11.14 15.76C10.93 15.32 10.66 14.83 10.31 14.35C9.9 13.78 9.02 13.06 8.66 12.75C7.38 11.67 5.64 10.8 3.76 10.33L3.8 10.08ZM20 10.1L23.36 10.1L21.26 22.68L17.89 22.68L20 10.1ZM39.03 10.1L41.58 10.1L44.25 22.68L41.19 22.68C41.19 22.68 40.89 21.24 40.79 20.8C40.31 20.8 36.94 20.79 36.56 20.79C36.43 21.13 35.86 22.68 35.86 22.68L32.4 22.68L37.3 11.14C37.65 10.32 38.24 10.1 39.03 10.1ZM39.28 13.48C39.11 13.95 38.83 14.71 38.84 14.67C38.84 14.67 37.81 17.44 37.54 18.16L40.26 18.16C40.01 16.96 39.75 15.76 39.5 14.56L39.28 13.48L39.28 13.48Z" fill="#112211" fill-opacity="1.000000" fill-rule="nonzero"/>
</svg>
