<svg width="16.000000" height="16.000000" viewBox="0 0 16 16" fill="none" xmlns="http://www.w3.org/2000/svg" xmlns:xlink="http://www.w3.org/1999/xlink">
	<desc>
			Created with Pixso.
	</desc>
	<defs>
		<clipPath id="clip50_1144">
			<rect id="Edit=True" width="16.000000" height="16.000000" fill="white" fill-opacity="0"/>
		</clipPath>
	</defs>
	<rect id="Edit=True" width="16.000000" height="16.000000" fill="#FFFFFF" fill-opacity="0"/>
	<g clip-path="url(#clip50_1144)">
		<path id="Vector" d="M14.37 1.66C14.32 1.61 14.27 1.57 14.21 1.54C14.14 1.51 14.08 1.5 14.01 1.5C13.94 1.49 13.87 1.51 13.81 1.53C13.75 1.56 13.69 1.59 13.64 1.64L13.26 2.03C13.21 2.07 13.18 2.14 13.18 2.2C13.18 2.27 13.21 2.33 13.26 2.38L13.61 2.73C13.63 2.76 13.66 2.78 13.69 2.79C13.72 2.8 13.75 2.81 13.79 2.81C13.82 2.81 13.85 2.8 13.88 2.79C13.91 2.78 13.94 2.76 13.96 2.73L14.34 2.36C14.53 2.17 14.55 1.86 14.37 1.66ZM12.47 2.81L6.83 8.44C6.8 8.47 6.77 8.52 6.76 8.56L6.5 9.34C6.49 9.36 6.49 9.38 6.5 9.4C6.5 9.42 6.51 9.44 6.53 9.46C6.55 9.48 6.57 9.49 6.59 9.49C6.61 9.5 6.63 9.5 6.65 9.49L7.43 9.23C7.48 9.22 7.52 9.19 7.55 9.16L13.18 3.52C13.24 3.46 13.26 3.39 13.26 3.32C13.26 3.24 13.24 3.17 13.18 3.12L12.87 2.81C12.82 2.75 12.75 2.73 12.67 2.73C12.6 2.73 12.53 2.75 12.47 2.81Z" fill="#000000" fill-opacity="1.000000" fill-rule="nonzero"/>
		<path id="Vector" d="M12.07 6.05L8.26 9.86C8.11 10.01 7.93 10.12 7.73 10.18L6.92 10.45C6.73 10.51 6.53 10.51 6.33 10.46C6.14 10.41 5.97 10.31 5.82 10.17C5.68 10.03 5.58 9.85 5.53 9.66C5.48 9.46 5.48 9.26 5.54 9.07L5.81 8.26C5.87 8.06 5.98 7.88 6.13 7.73L9.94 3.92C9.98 3.89 10 3.84 10.01 3.79C10.02 3.75 10.02 3.7 10 3.65C9.98 3.6 9.95 3.56 9.91 3.54C9.86 3.51 9.82 3.5 9.77 3.5L3.25 3.5C2.78 3.5 2.33 3.68 2.01 4.01C1.68 4.34 1.5 4.78 1.5 5.25L1.5 12.75C1.5 13.21 1.68 13.65 2.01 13.98C2.33 14.31 2.78 14.5 3.25 14.5L10.75 14.5C11.21 14.5 11.66 14.31 11.98 13.98C12.31 13.65 12.5 13.21 12.5 12.75L12.5 6.22C12.5 6.17 12.48 6.13 12.45 6.08C12.42 6.04 12.39 6.01 12.34 5.99C12.3 5.97 12.25 5.97 12.2 5.98C12.15 5.99 12.1 6.01 12.07 6.05Z" fill="#000000" fill-opacity="1.000000" fill-rule="nonzero"/>
	</g>
</svg>
