<svg width="32.000000" height="32.000000" viewBox="0 0 32 32" fill="none" xmlns="http://www.w3.org/2000/svg" xmlns:xlink="http://www.w3.org/1999/xlink">
	<desc>
			Created with Pixso.
	</desc>
	<defs>
		<clipPath id="clip101_18080">
			<rect id="calendar" width="22.000000" height="22.000000" transform="translate(5.000000 5.000000)" fill="white" fill-opacity="0"/>
		</clipPath>
	</defs>
	<rect id="Frame 2608694" rx="4.000000" width="32.000000" height="32.000000" transform="translate(0.000000 -0.500000)" fill="#EBF6F2" fill-opacity="1.000000"/>
	<rect id="calendar" width="22.000000" height="22.000000" transform="translate(5.000000 5.000000)" fill="#FFFFFF" fill-opacity="0"/>
	<g clip-path="url(#clip101_18080)">
		<path id="Vector" d="M24.25 11.28C24.25 10.66 24 10.06 23.56 9.61C23.11 9.17 22.51 8.92 21.89 8.92L21.3 8.92L21.3 8.35C21.3 8.03 21.06 7.76 20.74 7.75C20.66 7.74 20.58 7.75 20.5 7.78C20.43 7.81 20.36 7.85 20.3 7.91C20.25 7.96 20.2 8.03 20.17 8.1C20.14 8.18 20.12 8.25 20.12 8.33L20.12 8.92L11.87 8.92L11.87 8.35C11.87 8.03 11.63 7.76 11.31 7.75C11.23 7.74 11.15 7.75 11.08 7.78C11 7.81 10.93 7.85 10.87 7.91C10.82 7.96 10.77 8.03 10.74 8.1C10.71 8.18 10.69 8.25 10.69 8.33L10.69 8.92L10.1 8.92C9.48 8.92 8.88 9.17 8.43 9.61C7.99 10.06 7.75 10.66 7.75 11.28L7.75 11.72C7.75 11.76 7.76 11.8 7.79 11.83C7.82 11.85 7.85 11.87 7.89 11.87L24.1 11.87C24.14 11.87 24.17 11.85 24.2 11.83C24.23 11.8 24.25 11.76 24.25 11.72L24.25 11.28ZM7.75 21.89C7.75 22.51 7.99 23.11 8.43 23.55C8.88 24 9.48 24.24 10.1 24.24L21.89 24.24C22.51 24.24 23.11 24 23.56 23.55C24 23.11 24.25 22.51 24.25 21.89L24.25 13.16C24.25 13.13 24.23 13.1 24.21 13.08C24.19 13.06 24.16 13.05 24.13 13.05L7.86 13.05C7.83 13.05 7.8 13.06 7.78 13.08C7.76 13.1 7.75 13.13 7.75 13.16L7.75 21.89ZM20.41 14.23C20.59 14.23 20.76 14.28 20.91 14.38C21.05 14.47 21.16 14.61 21.23 14.77C21.3 14.93 21.32 15.11 21.28 15.28C21.25 15.45 21.16 15.61 21.04 15.74C20.92 15.86 20.76 15.94 20.59 15.98C20.41 16.01 20.24 15.99 20.08 15.93C19.91 15.86 19.78 15.75 19.68 15.6C19.58 15.46 19.53 15.29 19.53 15.11C19.53 14.88 19.62 14.65 19.79 14.49C19.96 14.32 20.18 14.23 20.41 14.23ZM20.41 17.17C20.59 17.17 20.76 17.23 20.91 17.32C21.05 17.42 21.16 17.56 21.23 17.72C21.3 17.88 21.32 18.06 21.28 18.23C21.25 18.4 21.16 18.56 21.04 18.68C20.92 18.81 20.76 18.89 20.59 18.92C20.41 18.96 20.24 18.94 20.08 18.87C19.91 18.81 19.78 18.69 19.68 18.55C19.58 18.4 19.53 18.23 19.53 18.06C19.53 17.82 19.62 17.6 19.79 17.43C19.96 17.27 20.18 17.17 20.41 17.17ZM17.47 14.23C17.64 14.23 17.81 14.28 17.96 14.38C18.1 14.47 18.22 14.61 18.28 14.77C18.35 14.93 18.37 15.11 18.33 15.28C18.3 15.45 18.22 15.61 18.09 15.74C17.97 15.86 17.81 15.94 17.64 15.98C17.47 16.01 17.29 15.99 17.13 15.93C16.97 15.86 16.83 15.75 16.73 15.6C16.64 15.46 16.58 15.29 16.58 15.11C16.58 14.88 16.68 14.65 16.84 14.49C17.01 14.32 17.23 14.23 17.47 14.23ZM17.47 17.17C17.64 17.17 17.81 17.23 17.96 17.32C18.1 17.42 18.22 17.56 18.28 17.72C18.35 17.88 18.37 18.06 18.33 18.23C18.3 18.4 18.22 18.56 18.09 18.68C17.97 18.81 17.81 18.89 17.64 18.92C17.47 18.96 17.29 18.94 17.13 18.87C16.97 18.81 16.83 18.69 16.73 18.55C16.64 18.4 16.58 18.23 16.58 18.06C16.58 17.82 16.68 17.6 16.84 17.43C17.01 17.27 17.23 17.17 17.47 17.17ZM17.47 20.12C17.64 20.12 17.81 20.17 17.96 20.27C18.1 20.37 18.22 20.5 18.28 20.67C18.35 20.83 18.37 21 18.33 21.18C18.3 21.35 18.22 21.51 18.09 21.63C17.97 21.75 17.81 21.84 17.64 21.87C17.47 21.9 17.29 21.89 17.13 21.82C16.97 21.75 16.83 21.64 16.73 21.49C16.64 21.35 16.58 21.18 16.58 21C16.58 20.77 16.68 20.54 16.84 20.38C17.01 20.21 17.23 20.12 17.47 20.12ZM14.52 17.17C14.7 17.17 14.87 17.23 15.01 17.32C15.16 17.42 15.27 17.56 15.34 17.72C15.41 17.88 15.42 18.06 15.39 18.23C15.35 18.4 15.27 18.56 15.15 18.68C15.02 18.81 14.87 18.89 14.69 18.92C14.52 18.96 14.34 18.94 14.18 18.87C14.02 18.81 13.88 18.69 13.79 18.55C13.69 18.4 13.64 18.23 13.64 18.06C13.64 17.82 13.73 17.6 13.9 17.43C14.06 17.27 14.29 17.17 14.52 17.17ZM14.52 20.12C14.7 20.12 14.87 20.17 15.01 20.27C15.16 20.37 15.27 20.5 15.34 20.67C15.41 20.83 15.42 21 15.39 21.18C15.35 21.35 15.27 21.51 15.15 21.63C15.02 21.75 14.87 21.84 14.69 21.87C14.52 21.9 14.34 21.89 14.18 21.82C14.02 21.75 13.88 21.64 13.79 21.49C13.69 21.35 13.64 21.18 13.64 21C13.64 20.77 13.73 20.54 13.9 20.38C14.06 20.21 14.29 20.12 14.52 20.12ZM11.58 17.17C11.75 17.17 11.92 17.23 12.07 17.32C12.21 17.42 12.33 17.56 12.39 17.72C12.46 17.88 12.48 18.06 12.44 18.23C12.41 18.4 12.32 18.56 12.2 18.68C12.08 18.81 11.92 18.89 11.75 18.92C11.58 18.96 11.4 18.94 11.24 18.87C11.08 18.81 10.94 18.69 10.84 18.55C10.74 18.4 10.69 18.23 10.69 18.06C10.69 17.82 10.78 17.6 10.95 17.43C11.12 17.27 11.34 17.17 11.58 17.17ZM11.58 20.12C11.75 20.12 11.92 20.17 12.07 20.27C12.21 20.37 12.33 20.5 12.39 20.67C12.46 20.83 12.48 21 12.44 21.18C12.41 21.35 12.32 21.51 12.2 21.63C12.08 21.75 11.92 21.84 11.75 21.87C11.58 21.9 11.4 21.89 11.24 21.82C11.08 21.75 10.94 21.64 10.84 21.49C10.74 21.35 10.69 21.18 10.69 21C10.69 20.77 10.78 20.54 10.95 20.38C11.12 20.21 11.34 20.12 11.58 20.12Z" fill="#8DD3BB" fill-opacity="1.000000" fill-rule="nonzero"/>
	</g>
</svg>
