<svg width="19.000000" height="18.000000" viewBox="0 0 19 18" fill="none" xmlns="http://www.w3.org/2000/svg" xmlns:xlink="http://www.w3.org/1999/xlink">
	<desc>
			Created with Pixso.
	</desc>
	<defs/>
	<path id="Vector" d="M9 17.5C8.69 17.49 8.4 17.4 8.15 17.23C4.47 14.73 2.87 13.02 1.99 11.95C0.12 9.66 -0.78 7.32 -0.75 4.77C-0.73 1.86 1.61 -0.5 4.45 -0.5C6.52 -0.5 7.95 0.66 8.78 1.63C8.81 1.66 8.84 1.68 8.88 1.7C8.91 1.72 8.96 1.73 9 1.73C9.04 1.73 9.08 1.72 9.11 1.7C9.15 1.68 9.18 1.66 9.21 1.63C10.04 0.66 11.47 -0.5 13.54 -0.5C16.38 -0.5 18.72 1.86 18.75 4.78C18.77 7.32 17.87 9.66 16 11.95C15.12 13.02 13.52 14.73 9.84 17.23C9.59 17.4 9.3 17.49 9 17.5Z" fill="#112211" fill-opacity="1.000000" fill-rule="nonzero"/>
</svg>
