<svg width="24.000000" height="24.000000" viewBox="0 0 24 24" fill="none" xmlns="http://www.w3.org/2000/svg" xmlns:xlink="http://www.w3.org/1999/xlink">
	<desc>
			Created with Pixso.
	</desc>
	<defs>
		<clipPath id="clip18_1520">
			<rect id="Fill=True" width="24.000000" height="24.000000" fill="white" fill-opacity="0"/>
		</clipPath>
	</defs>
	<rect id="Fill=True" width="24.000000" height="24.000000" fill="#FFFFFF" fill-opacity="0"/>
	<g clip-path="url(#clip18_1520)">
		<path id="Vector" d="M20.25 21C20.1523 21.0001 20.0547 20.9808 19.9629 20.9431C19.8711 20.9053 19.7891 20.8499 19.7207 20.7801L3.2207 4.28013C3.08594 4.13833 3.01172 3.94952 3.01367 3.75395C3.01562 3.55838 3.0957 3.37152 3.23242 3.23322C3.37109 3.09492 3.55859 3.01611 3.75391 3.01361C3.94922 3.01111 4.13867 3.0851 4.2793 3.21982L20.7793 19.7198C20.8848 19.8247 20.957 19.9583 20.9863 20.1038C21.0137 20.2492 21 20.3999 20.9434 20.5369C20.8867 20.6739 20.7891 20.791 20.666 20.8735C20.543 20.9559 20.3984 20.9999 20.25 21ZM11.625 14.8054L9.19727 12.3778C9.18359 12.364 9.16602 12.3549 9.14648 12.3518C9.12695 12.3487 9.10742 12.3517 9.08984 12.3605C9.07227 12.3692 9.05859 12.3832 9.04883 12.4005C9.03906 12.4178 9.03516 12.4376 9.03906 12.457C9.13672 13.0868 9.43164 13.6692 9.88281 14.1199C10.334 14.5706 10.916 14.8663 11.5449 14.9643C11.5645 14.967 11.5859 14.9635 11.6016 14.9543C11.6191 14.9452 11.6328 14.9308 11.6426 14.9133C11.6504 14.8958 11.6543 14.8759 11.6504 14.8566C11.6484 14.8372 11.6387 14.8194 11.625 14.8054ZM12.375 9.1945L14.8066 11.625C14.8203 11.639 14.8379 11.6482 14.8574 11.6514C14.877 11.6547 14.8965 11.6517 14.9141 11.6429C14.9316 11.6341 14.9473 11.62 14.9551 11.6026C14.9648 11.5851 14.9688 11.5653 14.9668 11.5458C14.8672 10.9151 14.5723 10.3319 14.1211 9.88058C13.6699 9.42931 13.0859 9.13335 12.4551 9.0356C12.4355 9.03259 12.416 9.03582 12.3984 9.04484C12.3809 9.05386 12.3672 9.06821 12.3574 9.08583C12.3496 9.10345 12.3457 9.12345 12.3496 9.14297C12.3516 9.16248 12.3613 9.18052 12.375 9.1945Z" fill="#000000" fill-opacity="1.000000" fill-rule="nonzero"/>
		<path id="Vector" d="M23.0156 12.8138C23.1699 12.5702 23.252 12.2872 23.252 11.9984C23.252 11.7096 23.168 11.4271 23.0117 11.1844C21.7715 9.26625 20.1621 7.63687 18.3574 6.47203C16.3594 5.18203 14.1562 4.5 11.9844 4.5C10.8398 4.50157 9.70312 4.6882 8.61914 5.05266C8.58789 5.06276 8.56055 5.08046 8.53906 5.10409C8.51758 5.12772 8.50195 5.15647 8.49414 5.18763C8.48828 5.21878 8.48828 5.2513 8.49805 5.28207C8.50586 5.31284 8.52344 5.34086 8.54492 5.36343L10.7598 7.57781C10.7832 7.60086 10.8105 7.61752 10.8418 7.62614C10.875 7.63478 10.9062 7.63509 10.9395 7.62703C11.6895 7.44411 12.4746 7.45752 13.2188 7.66595C13.9629 7.87438 14.6406 8.27082 15.1855 8.8171C15.7324 9.36338 16.1289 10.0411 16.3379 10.785C16.5449 11.5289 16.5586 12.3139 16.377 13.0645C16.3691 13.096 16.3691 13.129 16.377 13.1603C16.3867 13.1916 16.4023 13.2202 16.4258 13.2431L19.6113 16.4306C19.6445 16.4638 19.6875 16.4834 19.7344 16.4855C19.7812 16.4876 19.8281 16.472 19.8633 16.4419C21.0898 15.3968 22.1523 14.1739 23.0156 12.8138ZM12 16.5C11.3184 16.5 10.6465 16.3454 10.0332 16.0478C9.42188 15.7502 8.88281 15.3173 8.46289 14.7819C8.04102 14.2464 7.74805 13.6223 7.60352 12.9567C7.45703 12.2911 7.4668 11.6012 7.62695 10.9392C7.63477 10.9077 7.63477 10.8747 7.625 10.8434C7.61719 10.8121 7.59961 10.7836 7.57812 10.7606L4.44336 7.62609C4.41016 7.59283 4.36719 7.57327 4.32031 7.57127C4.27344 7.56927 4.22656 7.58499 4.19141 7.61531C3.04688 8.59078 1.98828 9.77766 1.01953 11.1647C0.849609 11.4081 0.755859 11.6965 0.75 11.9931C0.744141 12.2897 0.828125 12.5813 0.988281 12.8306C2.22656 14.768 3.82031 16.3997 5.5957 17.5486C7.5957 18.8438 9.74609 19.5 11.9844 19.5C13.1406 19.4969 14.2891 19.3143 15.3906 18.9586C15.4199 18.9488 15.4492 18.9313 15.4707 18.9078C15.4922 18.8842 15.5078 18.8554 15.5156 18.8242C15.5234 18.7929 15.5215 18.7602 15.5137 18.7293C15.5039 18.6983 15.4883 18.6701 15.4648 18.6473L13.2402 16.4227C13.2168 16.3997 13.1895 16.3831 13.1582 16.3745C13.127 16.3658 13.0938 16.3655 13.0625 16.3734C12.7148 16.4577 12.3574 16.5002 12 16.5Z" fill="#000000" fill-opacity="1.000000" fill-rule="nonzero"/>
	</g>
</svg>
