<svg width="32.000000" height="32.000000" viewBox="0 0 32 32" fill="none" xmlns="http://www.w3.org/2000/svg" xmlns:xlink="http://www.w3.org/1999/xlink">
	<desc>
			Created with Pixso.
	</desc>
	<defs>
		<clipPath id="clip119_12902">
			<rect id="ic:round-airline-seat-recline-normal" width="22.000000" height="22.000000" transform="translate(5.000000 5.000000)" fill="white" fill-opacity="0"/>
		</clipPath>
	</defs>
	<rect id="Frame 2608697" rx="4.000000" width="32.000000" height="32.000000" transform="translate(0.000000 -0.500000)" fill="#EBF6F2" fill-opacity="1.000000"/>
	<rect id="ic:round-airline-seat-recline-normal" width="22.000000" height="22.000000" transform="translate(5.000000 5.000000)" fill="#FFFFFF" fill-opacity="0"/>
	<g clip-path="url(#clip119_12902)">
		<path id="Vector" d="M11.95 9.95C11.24 9.24 11.24 8.07 11.95 7.36C12.67 6.64 13.83 6.64 14.55 7.36C15.26 8.07 15.26 9.24 14.55 9.95C13.82 10.68 12.67 10.68 11.95 9.95ZM10.5 19.66L10.5 12.33C10.5 11.82 10.08 11.41 9.58 11.41C9.07 11.41 8.66 11.82 8.66 12.33L8.66 19.66C8.66 22.19 10.71 24.25 13.25 24.25L17.83 24.25C18.33 24.25 18.75 23.83 18.75 23.33C18.75 22.82 18.33 22.41 17.83 22.41L13.25 22.41C11.72 22.41 10.5 21.18 10.5 19.66ZM22.67 22.73L19.21 19.28C18.87 18.94 18.41 18.75 17.92 18.75L15.54 18.75L15.54 15.37C16.54 16.19 17.97 16.93 19.39 17.22C20 17.35 20.58 16.89 20.58 16.27C20.58 15.78 20.22 15.39 19.74 15.31C18.43 15.09 17.09 14.38 16.3 13.5L15.01 12.08C14.84 11.89 14.62 11.73 14.38 11.62C14.12 11.49 13.81 11.41 13.5 11.41L13.47 11.41C12.34 11.41 11.41 12.34 11.41 13.47L11.41 18.75C11.41 20.27 12.64 21.5 14.16 21.5L18.81 21.5L21.36 24.04C21.71 24.4 22.31 24.4 22.67 24.04C23.03 23.69 23.03 23.1 22.67 22.73Z" fill="#8DD3BB" fill-opacity="1.000000" fill-rule="nonzero"/>
	</g>
</svg>
