<svg width="24.000000" height="24.000000" viewBox="0 0 24 24" fill="none" xmlns="http://www.w3.org/2000/svg" xmlns:xlink="http://www.w3.org/1999/xlink">
	<desc>
			Created with Pixso.
	</desc>
	<defs>
		<clipPath id="clip33_1177">
			<rect id="Fill=True" width="24.000000" height="24.000000" fill="white" fill-opacity="0"/>
		</clipPath>
	</defs>
	<rect id="Fill=True" width="24.000000" height="24.000000" fill="#FFFFFF" fill-opacity="0"/>
	<g clip-path="url(#clip33_1177)">
		<path id="Vector" d="M15 12C15 13.65 13.65 15 12 15C10.34 15 9 13.65 9 12C9 10.34 10.34 9 12 9C13.65 9 15 10.34 15 12Z" fill="#000000" fill-opacity="1.000000" fill-rule="evenodd"/>
		<path id="Vector" d="M23 11.18C21.76 9.26 20.15 7.63 18.35 6.47C16.35 5.18 14.15 4.5 11.98 4.5C9.98 4.5 8.02 5.06 6.15 6.19C4.24 7.33 2.51 9.01 1.01 11.16C0.84 11.4 0.75 11.69 0.74 11.99C0.74 12.28 0.82 12.58 0.98 12.83C2.22 14.76 3.81 16.39 5.58 17.54C7.58 18.84 9.74 19.5 11.98 19.5C14.17 19.5 16.37 18.82 18.36 17.54C20.16 16.38 21.77 14.74 23.01 12.81C23.16 12.57 23.24 12.28 23.24 11.99C23.24 11.7 23.16 11.42 23 11.18ZM11.99 16.5C11.1 16.5 10.23 16.23 9.49 15.74C8.75 15.24 8.17 14.54 7.83 13.72C7.5 12.89 7.41 11.99 7.58 11.12C7.75 10.24 8.18 9.44 8.81 8.81C9.44 8.18 10.24 7.76 11.11 7.58C11.99 7.41 12.89 7.5 13.71 7.84C14.54 8.18 15.24 8.75 15.73 9.49C16.23 10.23 16.49 11.11 16.49 12C16.49 13.19 16.01 14.33 15.17 15.18C14.33 16.02 13.19 16.49 11.99 16.5Z" fill="#000000" fill-opacity="1.000000" fill-rule="nonzero"/>
	</g>
</svg>
