<svg width="16.000000" height="16.000000" viewBox="0 0 16 16" fill="none" xmlns="http://www.w3.org/2000/svg" xmlns:xlink="http://www.w3.org/1999/xlink">
	<desc>
			Created with Pixso.
	</desc>
	<defs>
		<clipPath id="clip44_1046">
			<rect id="Filled=True" width="16.000000" height="16.000000" fill="white" fill-opacity="0"/>
		</clipPath>
	</defs>
	<rect id="Filled=True" width="16.000000" height="16.000000" fill="#FFFFFF" fill-opacity="0"/>
	<g clip-path="url(#clip44_1046)">
		<path id="Vector" d="M14.8 6.56C14.36 6.23 13.82 5.99 13.25 5.87C13.16 5.85 13.08 5.8 13.01 5.73C12.94 5.66 12.89 5.58 12.87 5.48C12.63 4.4 12.1 3.47 11.33 2.76C10.44 1.94 9.25 1.49 8 1.49C6.89 1.49 5.87 1.83 5.05 2.49C4.49 2.93 4.04 3.5 3.73 4.15C3.7 4.22 3.65 4.28 3.59 4.33C3.53 4.37 3.45 4.41 3.38 4.42C2.54 4.59 1.79 4.95 1.21 5.46C0.41 6.16 0 7.1 0 8.16C0 9.24 0.45 10.23 1.27 10.94C2.06 11.62 3.11 11.99 4.25 11.99L7.5 11.99L7.5 7.2L6.35 8.34C6.3 8.39 6.24 8.43 6.18 8.45C6.12 8.48 6.05 8.49 5.98 8.49C5.91 8.49 5.85 8.47 5.79 8.44C5.73 8.42 5.67 8.37 5.62 8.32C5.44 8.13 5.46 7.82 5.65 7.62L7.64 5.63C7.74 5.54 7.86 5.49 8 5.49C8.13 5.49 8.25 5.54 8.35 5.63L10.34 7.62C10.53 7.82 10.55 8.14 10.35 8.34C10.31 8.39 10.25 8.42 10.19 8.45C10.13 8.48 10.06 8.49 10 8.49C9.93 8.49 9.87 8.48 9.81 8.45C9.75 8.43 9.69 8.39 9.64 8.34L8.5 7.2L8.5 11.99L12.37 11.99C13.35 11.99 14.24 11.71 14.88 11.21C15.61 10.65 16 9.84 16 8.88C16 7.94 15.58 7.14 14.8 6.56ZM7.5 14C7.5 14.13 7.55 14.26 7.64 14.36C7.74 14.45 7.86 14.5 8 14.5C8.13 14.5 8.25 14.45 8.35 14.36C8.44 14.26 8.5 14.13 8.5 14L8.5 11.99L7.5 11.99L7.5 14Z" fill="#000000" fill-opacity="1.000000" fill-rule="nonzero"/>
		<path id="Vector" d="M8.5 11.99L12.37 11.99C13.35 11.99 14.24 11.71 14.88 11.21C15.61 10.65 16 9.84 16 8.88C16 7.94 15.58 7.14 14.8 6.56C14.36 6.23 13.82 5.99 13.25 5.87C13.16 5.85 13.08 5.8 13.01 5.73C12.94 5.66 12.89 5.58 12.87 5.48C12.63 4.4 12.1 3.47 11.33 2.76C10.44 1.94 9.25 1.49 8 1.49C6.89 1.49 5.87 1.83 5.05 2.49C4.49 2.93 4.04 3.5 3.73 4.15C3.7 4.22 3.65 4.28 3.59 4.33C3.53 4.37 3.45 4.41 3.38 4.42C2.54 4.59 1.79 4.95 1.21 5.46C0.41 6.16 0 7.1 0 8.16C0 9.24 0.45 10.23 1.27 10.94C2.06 11.62 3.11 11.99 4.25 11.99L7.5 11.99L8.5 11.99M7.5 11.99L7.5 7.2L6.35 8.34C6.3 8.39 6.24 8.43 6.18 8.45C6.12 8.48 6.05 8.49 5.98 8.49C5.91 8.49 5.85 8.47 5.79 8.44C5.73 8.42 5.67 8.37 5.62 8.32C5.44 8.13 5.46 7.82 5.65 7.62L7.64 5.63C7.74 5.54 7.86 5.49 8 5.49C8.13 5.49 8.25 5.54 8.35 5.63L10.34 7.62C10.53 7.82 10.55 8.14 10.35 8.34C10.31 8.39 10.25 8.42 10.19 8.45C10.13 8.48 10.06 8.49 10 8.49C9.93 8.49 9.87 8.48 9.81 8.45C9.75 8.43 9.69 8.39 9.64 8.34L8.5 7.2L8.5 11.99L8.5 14C8.5 14.13 8.44 14.26 8.35 14.36C8.25 14.45 8.13 14.5 8 14.5C7.86 14.5 7.74 14.45 7.64 14.36C7.55 14.26 7.5 14.13 7.5 14L7.5 11.99" stroke="#112211" stroke-opacity="1.000000" stroke-width="1.000000"/>
	</g>
</svg>
