<svg width="24.000000" height="24.000000" viewBox="0 0 24 24" fill="none" xmlns="http://www.w3.org/2000/svg" xmlns:xlink="http://www.w3.org/1999/xlink">
	<desc>
			Created with Pixso.
	</desc>
	<defs>
		<clipPath id="clip68_5845">
			<rect id="ant-design:apple-filled" width="24.000000" height="24.000000" fill="white" fill-opacity="0"/>
		</clipPath>
	</defs>
	<rect id="ant-design:apple-filled" width="24.000000" height="24.000000" fill="#FFFFFF" fill-opacity="0"/>
	<g clip-path="url(#clip68_5845)">
		<path id="Vector" d="M17.5176 12.5555C17.5078 10.957 18.2324 9.75235 19.6953 8.86407C18.877 7.6922 17.6387 7.04767 16.0078 6.92343C14.4629 6.80157 12.7734 7.82343 12.1543 7.82343C11.5 7.82343 10.0059 6.96564 8.82812 6.96564C6.40039 7.00311 3.82031 8.90155 3.82031 12.7641C3.82031 13.9055 4.0293 15.0844 4.44531 16.2984C5.00391 17.8969 7.01562 21.8133 9.11328 21.75C10.209 21.7242 10.9844 20.9719 12.4121 20.9719C13.7969 20.9719 14.5156 21.75 15.7383 21.75C17.8555 21.7195 19.6738 18.1594 20.2031 16.5562C17.3652 15.218 17.5176 12.6375 17.5176 12.5555ZM15.0547 5.40704C16.2422 3.99609 16.1348 2.71173 16.0996 2.25C15.0488 2.31094 13.8359 2.96484 13.1445 3.76874C12.3828 4.63126 11.9336 5.69766 12.0312 6.89999C13.1641 6.98672 14.2012 6.40314 15.0547 5.40704Z" fill="#000000" fill-opacity="1.000000" fill-rule="nonzero"/>
	</g>
</svg>
