<svg width="24.000000" height="24.000000" viewBox="0 0 24 24" fill="none" xmlns="http://www.w3.org/2000/svg" xmlns:xlink="http://www.w3.org/1999/xlink">
	<desc>
			Created with Pixso.
	</desc>
	<defs/>
	<path id="Vector" d="M24 12.0733C24 5.40546 18.627 0 12 0C5.37305 0 0 5.40536 0 12.0733C0 18.0994 4.38867 23.0943 10.125 24L10.125 15.5633L7.07812 15.5633L7.07812 12.0733L10.125 12.0733L10.125 9.41342C10.125 6.38754 11.916 4.71616 14.6582 4.71616C15.9707 4.71616 17.3438 4.95197 17.3438 4.95197L17.3438 7.92313L15.8301 7.92313C14.3398 7.92313 13.875 8.85382 13.875 9.80865L13.875 12.0733L17.2031 12.0733L16.6719 15.5633L13.875 15.5633L13.875 24C19.6113 23.0943 24 18.0995 24 12.0733Z" fill="#1877F2" fill-opacity="1.000000" fill-rule="nonzero"/>
</svg>
