<svg width="24.000000" height="24.000000" viewBox="0 0 24 24" fill="none" xmlns="http://www.w3.org/2000/svg" xmlns:xlink="http://www.w3.org/1999/xlink">
	<desc>
			Created with Pixso.
	</desc>
	<defs>
		<clipPath id="clip68_5839">
			<rect id="flat-color-icons:google" width="24.000000" height="24.000000" fill="white" fill-opacity="0"/>
		</clipPath>
	</defs>
	<rect id="flat-color-icons:google" width="24.000000" height="24.000000" fill="#FFFFFF" fill-opacity="0"/>
	<g clip-path="url(#clip68_5839)">
		<path id="Vector" d="M21.8047 10.0415L21 10.0415L21 10L12 10L12 14L17.6523 14C16.8262 16.3285 14.6113 18 12 18C8.68555 18 6 15.3135 6 12C6 8.68649 8.68555 6 12 6C13.5293 6 14.9219 6.577 15.9805 7.5195L18.8086 4.69101C17.0234 3.02649 14.6348 2 12 2C6.47656 2 2 6.47751 2 12C2 17.5225 6.47656 22 12 22C17.5234 22 22 17.5225 22 12C22 11.3295 21.9316 10.675 21.8047 10.0415Z" fill="#FFC107" fill-opacity="1.000000" fill-rule="nonzero"/>
		<path id="Vector" d="M3.15234 7.34549L6.4375 9.755C7.32617 7.55399 9.48047 6 12 6C13.5293 6 14.9199 6.577 15.9805 7.5195L18.8086 4.69101C17.0215 3.02649 14.6328 2 12 2C8.1582 2 4.82812 4.16849 3.15234 7.34549Z" fill="#FF3D00" fill-opacity="1.000000" fill-rule="nonzero"/>
		<path id="Vector" d="M12 22C14.584 22 16.9297 21.0115 18.7051 19.404L15.6094 16.785C14.5723 17.5742 13.3047 18.001 12 18C9.39844 18 7.19141 16.3415 6.35938 14.027L3.09766 16.5395C4.75195 19.778 8.11328 22 12 22Z" fill="#4CAF50" fill-opacity="1.000000" fill-rule="nonzero"/>
		<path id="Vector" d="M21.8047 10.0415L21 10.0415L21 10L12 10L12 14L17.6523 14C17.2578 15.1082 16.5469 16.0766 15.6074 16.7855L15.6094 16.7845L18.7051 19.4035C18.4863 19.6025 22 17 22 12C22 11.3295 21.9316 10.675 21.8047 10.0415Z" fill="#1976D2" fill-opacity="1.000000" fill-rule="nonzero"/>
	</g>
</svg>
